<svg xmlns="http://www.w3.org/2000/svg" width="700" height="300" viewBox="0 0 700 300">
  <rect x="10" y="10" width="160" height="60" rx="8" fill="#DAE8FC" stroke="#6C8EBF" />
  <text x="30" y="45" font-family="Arial" font-size="14" fill="#000">Browser (Streamlit)</text>

  <rect x="200" y="10" width="160" height="60" rx="8" fill="#FFE6CC" stroke="#D79B00" />
  <text x="220" y="45" font-family="Arial" font-size="14">Streamlit UI</text>

  <rect x="10" y="110" width="200" height="60" rx="8" fill="#E1D5E7" stroke="#9673A6" />
  <text x="30" y="145" font-family="Arial" font-size="14">Ingest (WebSocket)</text>

  <rect x="260" y="110" width="180" height="60" rx="8" fill="#D5E8D4" stroke="#82B366" />
  <text x="280" y="145" font-family="Arial" font-size="14">SQLite (ticks.db)</text>

  <rect x="10" y="210" width="200" height="60" rx="8" fill="#FFF2CC" stroke="#D6B656" />
  <text x="30" y="245" font-family="Arial" font-size="14">Analytics module</text>

  <rect x="260" y="210" width="180" height="60" rx="8" fill="#F8CECC" stroke="#B85450" />
  <text x="280" y="245" font-family="Arial" font-size="14">Exports / Alerts</text>

  <line x1="110" y1="70" x2="280" y2="70" stroke="#333" stroke-width="1" />
  <line x1="110" y1="120" x2="110" y2="170" stroke="#333" stroke-width="1" />
  <line x1="210" y1="140" x2="260" y2="140" stroke="#333" stroke-width="1" />
  <line x1="110" y1="250" x2="260" y2="250" stroke="#333" stroke-width="1" />
</svg>
